<svg id="Component_62_1" data-name="Component 62 – 1" xmlns="http://www.w3.org/2000/svg" width="168.737" height="111.757" viewBox="0 0 168.737 111.757">
  <g id="Group_22" data-name="Group 22" transform="translate(-1)">
    <g id="Group_21" data-name="Group 21" transform="translate(1 100.963)">
      <path id="Path_7" data-name="Path 7" d="M18.312,303.256c0-3.767,1.89-5.39,5.277-5.39a5.233,5.233,0,0,1,3.923,1.354L26.5,300.265a3.99,3.99,0,0,0-2.907-1.03c-2.61,0-3.852,1.312-3.852,4.035,0,2.766,1,4.106,3.838,4.106,2.6,0,3.216-1.044,3.216-3.118v-.3H23.42v-1.27H28.2V304c0,2.878-.847,4.642-4.685,4.642S18.312,306.8,18.312,303.256Z" transform="translate(-18.312 -297.866)" fill="#76ac22"/>
      <path id="Path_8" data-name="Path 8" d="M49.392,303.256c0-3.781,1.989-5.39,5.333-5.39s5.333,1.609,5.333,5.39-1.989,5.4-5.333,5.4S49.392,307.052,49.392,303.256Zm9.241.028c0-2.6-1.186-4.049-3.908-4.049s-3.894,1.453-3.894,4.049,1.171,4.049,3.894,4.049S58.633,305.88,58.633,303.284Z" transform="translate(-35.869 -297.866)" fill="#76ac22"/>
      <path id="Path_9" data-name="Path 9" d="M80.89,298.255h1.5L85.8,306.99l3.386-8.735h1.5l-4.176,10.526H85.053Z" transform="translate(-53.663 -298.086)" fill="#76ac22"/>
      <path id="Path_10" data-name="Path 10" d="M112.682,298.255h1.424V307.4h5.447v1.311h-6.872Z" transform="translate(-71.623 -298.086)" fill="#8c8b8b"/>
      <path id="Path_11" data-name="Path 11" d="M140,298.1h1.453l4.191,10.524H144.18l-.861-2.2H138.1l-.86,2.2h-1.425Zm2.809,7.012L140.7,299.8l-2.117,5.306Z" transform="translate(-84.69 -297.995)" fill="#8c8b8b"/>
      <path id="Path_12" data-name="Path 12" d="M164.232,298.255h1.482l2.54,8.142,2.6-8.142h1.257l2.6,8.142,2.54-8.142h1.4l-3.317,10.526h-1.255l-2.625-8.2-2.611,8.2h-1.27Z" transform="translate(-100.744 -298.086)" fill="#8c8b8b"/>
      <path id="Path_13" data-name="Path 13" d="M204.976,303.256c0-3.683,1.934-5.39,5.292-5.39a5.223,5.223,0,0,1,3.781,1.369l-1.03,1.03a3.912,3.912,0,0,0-2.766-1.03c-2.568,0-3.838,1.354-3.838,4.035,0,2.64,1.171,4.035,3.853,4.035a3.618,3.618,0,0,0,2.835-1.071l1.016.973a5.027,5.027,0,0,1-3.922,1.439C206.571,308.646,204.976,306.77,204.976,303.256Z" transform="translate(-123.761 -297.866)" fill="#4e99d5"/>
      <path id="Path_14" data-name="Path 14" d="M233.786,303.256c0-3.781,1.988-5.39,5.332-5.39s5.334,1.609,5.334,5.39-1.991,5.4-5.334,5.4S233.786,307.052,233.786,303.256Zm9.242.028c0-2.6-1.186-4.049-3.909-4.049s-3.893,1.453-3.893,4.049,1.171,4.049,3.893,4.049S243.028,305.88,243.028,303.284Z" transform="translate(-140.036 -297.866)" fill="#4e99d5"/>
      <path id="Path_15" data-name="Path 15" d="M268.236,298.255h1.552l5.855,8.057v-8.057h1.382V308.71h-1.311l-6.1-8.366v8.366h-1.383Z" transform="translate(-159.497 -298.086)" fill="#4e99d5"/>
      <path id="Path_16" data-name="Path 16" d="M299.734,298.255h1.553l5.856,8.057v-8.057h1.382V308.71h-1.311l-6.1-8.366v8.366h-1.383Z" transform="translate(-177.291 -298.086)" fill="#4e99d5"/>
      <path id="Path_17" data-name="Path 17" d="M331.236,298.255h7.154v1.368h-5.728v3.007h5.587v1.354h-5.587V307.4h5.785v1.311h-7.21Z" transform="translate(-195.086 -298.086)" fill="#4e99d5"/>
      <path id="Path_18" data-name="Path 18" d="M356.509,303.256c0-3.683,1.932-5.39,5.291-5.39a5.221,5.221,0,0,1,3.781,1.369l-1.031,1.03a3.9,3.9,0,0,0-2.764-1.03c-2.569,0-3.838,1.354-3.838,4.035,0,2.64,1.171,4.035,3.851,4.035a3.618,3.618,0,0,0,2.836-1.071l1.016.973a5.026,5.026,0,0,1-3.922,1.439C358.1,308.646,356.509,306.77,356.509,303.256Z" transform="translate(-209.364 -297.866)" fill="#4e99d5"/>
      <path id="Path_19" data-name="Path 19" d="M389.024,299.623h-3.839v-1.368H394.3v1.368h-3.837v9.087h-1.439Z" transform="translate(-225.563 -298.086)" fill="#4e99d5"/>
    </g>
    <path id="Path_20" data-name="Path 20" d="M204.651,192.663V208.5H136.258V146.149L151.7,158.817v33.846Z" transform="translate(-84.941 -127.196)" fill="#8c8b8b" fill-rule="evenodd"/>
    <path id="Path_21" data-name="Path 21" d="M227.806,147.64V132.254H177.228v50.492h50.491V149.761H194.93v15.213h17.956v2.189H192.916V147.64Z" transform="translate(-108.086 -119.347)" fill="#76ac22"/>
    <path id="Path_22" data-name="Path 22" d="M148.675,132.431h-2.219v7.237l2.219,2.164Z" transform="translate(-90.702 -119.446)" fill="#4e99d5"/>
    <path id="Path_23" data-name="Path 23" d="M138.477,138.027v-5.6h-2.219v3.454l.163.138h0Z" transform="translate(-84.941 -119.447)" fill="#4e99d5"/>
    <path id="Path_24" data-name="Path 24" d="M158.875,132.431h-2.219v10.61l2.219,2.163Z" transform="translate(-96.464 -119.446)" fill="#4e99d5"/>
    <path id="Path_25" data-name="Path 25" d="M169.073,132.431h-2.219v14.445l2.219,2.165Z" transform="translate(-102.225 -119.446)" fill="#4e99d5"/>
    <rect id="Rectangle_21" data-name="Rectangle 21" width="24.554" height="2.121" transform="translate(46.608)" fill="#4e99d5"/>
    <rect id="Rectangle_22" data-name="Rectangle 22" width="19.51" height="2.121" transform="translate(49.279 4.137)" fill="#4e99d5"/>
    <rect id="Rectangle_23" data-name="Rectangle 23" width="15.598" height="2.121" transform="translate(51.132 8.44)" fill="#4e99d5"/>
  </g>
</svg>
